<svg data-v-423bf9ae="" xmlns="http://www.w3.org/2000/svg" viewBox="0 0 384 90" class="iconLeftSlogan"><!----><!----><!----><g data-v-423bf9ae="" id="31116e89-4d0e-491e-a0c6-18316c9e03d9" fill="#19CEDA" transform="matrix(4.285714626312256,0,0,4.285714626312256,67.55013275146484,-12)"><path d="M0.28 4.66L2.59 4.66L2.59 13.27L3.57 13.27L3.57 4.66L5.88 4.66L5.88 3.75L3.57 3.75L2.59 3.75L0.28 3.75ZM8.19 13.30L8.19 10.72C8.19 9.87 8.34 9.22 8.63 8.77C8.79 8.52 9.01 8.33 9.27 8.20C9.53 8.06 9.87 7.99 10.29 7.99C10.71 7.99 11.01 8.14 11.19 8.42C11.38 8.71 11.47 9.05 11.47 9.45L11.47 13.30L12.45 13.30L12.45 9.45C12.45 8.74 12.26 8.16 11.89 7.72C11.70 7.50 11.47 7.33 11.20 7.20C10.93 7.08 10.57 7.01 10.14 7.01C9.70 7.01 9.31 7.13 8.97 7.36C8.66 7.57 8.40 7.85 8.19 8.20L8.19 2.80L7.21 2.80L7.21 13.30ZM20.36 10.08C20.36 9.23 20.03 8.50 19.38 7.88C18.75 7.28 18.00 6.97 17.14 6.97C16.25 6.97 15.49 7.29 14.86 7.92C14.23 8.55 13.92 9.31 13.92 10.19C13.92 11.08 14.23 11.84 14.86 12.46C15.16 12.75 15.50 12.98 15.88 13.15C16.27 13.31 16.74 13.40 17.28 13.40C17.83 13.40 18.37 13.23 18.89 12.89C19.42 12.55 19.81 12.08 20.08 11.49L18.96 11.49C18.74 11.78 18.47 12.01 18.15 12.17C17.83 12.34 17.49 12.42 17.14 12.42C16.61 12.42 16.13 12.25 15.71 11.90C15.29 11.56 15.03 11.13 14.94 10.60L20.36 10.60ZM19.32 9.76L14.95 9.76C15.01 9.50 15.11 9.26 15.25 9.04C15.71 8.31 16.34 7.95 17.14 7.95C17.66 7.95 18.12 8.12 18.53 8.46C18.94 8.80 19.21 9.23 19.32 9.76ZM29.16 13.87L33.47 3.78L32.41 3.78L29.16 11.45L25.90 3.78L24.84 3.78ZM38.25 10.19C38.25 10.80 38.03 11.32 37.59 11.76C37.15 12.20 36.62 12.42 36.01 12.42C35.39 12.42 34.86 12.20 34.43 11.76C33.99 11.32 33.77 10.80 33.77 10.19C33.77 9.58 33.99 9.05 34.43 8.61C34.86 8.17 35.39 7.95 36.01 7.95C36.62 7.95 37.15 8.17 37.59 8.61C38.03 9.05 38.25 9.58 38.25 10.19ZM39.23 10.19C39.23 9.31 38.91 8.55 38.28 7.92C37.65 7.29 36.89 6.97 36.01 6.97C35.12 6.97 34.36 7.29 33.73 7.92C33.10 8.55 32.79 9.31 32.79 10.19C32.79 11.08 33.10 11.84 33.73 12.46C34.37 13.09 35.13 13.40 36.01 13.40C36.89 13.40 37.65 13.09 38.28 12.46C38.91 11.84 39.23 11.08 39.23 10.19ZM41.69 16.80L45.95 7.14L44.86 7.14L43.09 11.27L41.12 7.14L40.00 7.14L42.57 12.29L40.50 16.80ZM51.76 10.22C51.76 10.82 51.55 11.34 51.14 11.79C50.72 12.24 50.20 12.46 49.59 12.46C48.97 12.46 48.46 12.24 48.04 11.79C47.63 11.34 47.42 10.82 47.42 10.22C47.42 9.62 47.63 9.10 48.04 8.65C48.46 8.20 48.97 7.98 49.59 7.98C50.20 7.98 50.72 8.20 51.14 8.65C51.55 9.10 51.76 9.62 51.76 10.22ZM52.74 13.30L52.74 7.14L51.76 7.14L51.76 8.19C51.70 8.12 51.64 8.05 51.58 7.98C51.00 7.33 50.28 7.00 49.43 7.00C48.58 7.00 47.87 7.33 47.29 7.98C46.72 8.61 46.44 9.36 46.44 10.22C46.44 11.08 46.72 11.83 47.29 12.46C47.87 13.11 48.58 13.44 49.43 13.44C50.28 13.44 51.00 13.11 51.58 12.46C51.64 12.39 51.70 12.32 51.76 12.25L51.76 13.30ZM59.82 10.22C59.82 10.82 59.61 11.34 59.20 11.79C58.78 12.24 58.27 12.46 57.65 12.46C57.05 12.46 56.54 12.24 56.11 11.79C55.69 11.35 55.48 10.83 55.48 10.22C55.48 9.61 55.69 9.09 56.11 8.65C56.54 8.20 57.05 7.98 57.65 7.98C58.27 7.98 58.78 8.20 59.20 8.65C59.61 9.10 59.82 9.62 59.82 10.22ZM55.46 14.14L54.46 14.14C54.56 14.79 54.86 15.37 55.36 15.86C55.98 16.49 56.73 16.80 57.61 16.80C58.49 16.80 59.24 16.49 59.86 15.86C60.49 15.24 60.80 14.49 60.80 13.61L60.80 7.14L59.82 7.14L59.82 8.17C59.78 8.11 59.72 8.05 59.66 7.98C59.05 7.33 58.33 7.00 57.51 7.00C56.65 7.00 55.93 7.33 55.35 7.98C54.78 8.61 54.50 9.36 54.50 10.22C54.50 11.08 54.78 11.83 55.35 12.46C55.93 13.11 56.65 13.44 57.51 13.44C58.36 13.44 59.08 13.11 59.66 12.46C59.72 12.39 59.78 12.33 59.82 12.27L59.82 13.61C59.82 14.21 59.61 14.74 59.17 15.17C58.74 15.60 58.22 15.82 57.61 15.82C57.00 15.82 56.48 15.60 56.05 15.17C55.75 14.87 55.55 14.52 55.46 14.14ZM68.92 10.08C68.92 9.23 68.60 8.50 67.95 7.88C67.31 7.28 66.56 6.97 65.70 6.97C64.82 6.97 64.06 7.29 63.43 7.92C62.80 8.55 62.48 9.31 62.48 10.19C62.48 11.08 62.80 11.84 63.43 12.46C63.72 12.75 64.06 12.98 64.45 13.15C64.84 13.31 65.30 13.40 65.85 13.40C66.40 13.40 66.93 13.23 67.46 12.89C67.99 12.55 68.38 12.08 68.64 11.49L67.52 11.49C67.31 11.78 67.04 12.01 66.72 12.17C66.40 12.34 66.06 12.42 65.70 12.42C65.18 12.42 64.70 12.25 64.27 11.90C63.86 11.56 63.60 11.13 63.50 10.60L68.92 10.60ZM67.89 9.76L63.52 9.76C63.57 9.50 63.67 9.26 63.81 9.04C64.27 8.31 64.90 7.95 65.70 7.95C66.23 7.95 66.69 8.12 67.10 8.46C67.51 8.80 67.77 9.23 67.89 9.76ZM73.70 8.41L73.70 7.14C73.50 7.06 73.29 7.01 73.08 7.01C72.39 7.01 71.88 7.40 71.55 8.16L71.51 8.41L71.51 7.14L70.53 7.14L70.53 13.30L71.51 13.30L71.51 10.22C71.51 9.71 71.63 9.26 71.86 8.86C71.98 8.64 72.14 8.47 72.32 8.32C72.50 8.18 72.72 8.11 72.97 8.11C73.23 8.11 73.47 8.21 73.70 8.41Z"></path></g><!----><g data-v-423bf9ae="" id="031f8701-5d18-4a5b-982c-345c98a8d681" transform="matrix(2.5,0,0,2.5,-19.381061553955078,-0.00299835205078125)" stroke="none" fill="#19CEDA"><path style="line-height:normal;text-indent:0;text-align:start;text-decoration-line:none;text-decoration-style:solid;text-decoration-color:#000;text-transform:none;block-progression:tb;isolation:auto;mix-blend-mode:normal" d="M10.004.002c-1.1 0-2 .9-2 2v32c0 1.1.9 2 2 2h15c1.1 0 2-.9 2-2V14.994a.492.492 0 0 0 .5-.494v-.992a.499.499 0 0 0-.5-.506v-.012a.492.492 0 0 0 .5-.494v-.992a.5.5 0 0 0-.5-.506V9.633a.502.502 0 0 0 .488-.508V8.51a.5.5 0 0 0-.488-.508v-6c0-1.1-.9-2-2-2h-15zm0 1h15c.563 0 1 .437 1 1v4h-17v-4c0-.563.437-1 1-1zm5.5 2a.5.5 0 1 0 0 1 .5.5 0 0 0 0-1zm1.99 0c-.676-.01-.676 1.01 0 1h2.018c.676.01.676-1.01 0-1h-2.018zm-8.49 4h17v22h-17v-22zm5.54 4.006a.5.5 0 0 0-.446.722l2.115 4.272-3.234.01-.512-.783a.5.5 0 0 0-.418-.229h-2a.5.5 0 0 0-.463.69l.941 2.31-.941 2.313a.5.5 0 0 0 .463.687h2a.5.5 0 0 0 .418-.225l.51-.775h3.248l-2.104 4.277a.5.5 0 0 0 .447.72h2a.5.5 0 0 0 .41-.214L20.327 20h3.192a.5.5 0 0 0 .002 0c1.097 0 1.998-.9 1.998-2s-.901-2-2-2H20.29l-3.336-4.777a.5.5 0 0 0-.41-.215h-2zm.808 1h.933l3.336 4.78a.5.5 0 0 0 .408.212h3.489c.562 0 1 .437 1 1a.987.987 0 0 1-1 1h-3.454a.5.5 0 0 0-.408.215l-3.347 4.781h-.938l2.104-4.275a.5.5 0 0 0-.45-.721h-4.318a.5.5 0 0 0-.418.227l-.51.773h-.986l.738-1.81a.5.5 0 0 0 0-.378L10.793 16h.984l.512.785a.5.5 0 0 0 .42.227l4.31-.014a.5.5 0 0 0 .448-.72l-2.115-4.27zM9.004 30.002h17v4c0 .563-.438 1-1 1h-15c-.563 0-1-.437-1-1v-4zm8.56 1.5c-.582 0-1.066.482-1.066 1.064 0 .583.484 1.067 1.066 1.067.583 0 1.067-.484 1.067-1.067 0-.582-.484-1.064-1.067-1.064z" color="#000" font-weight="400" font-family="sans-serif" white-space="normal" overflow="visible"></path></g><!----><g data-v-423bf9ae="" id="f16d8b8a-9686-46a6-8c16-31cf7bb94370" fill="#19CEDA" transform="matrix(0.6247380971908569,0,0,0.6247380971908569,68.7563705444336,58.68804931640625)"><path d="M4.93 7.81L8.81 2.21L7.53 2.21L4.40 6.72L1.26 2.21L-0.01 2.21L3.88 7.81L3.88 11.48L4.93 11.48ZM20.55 2.10C17.74 2.10 15.85 4.21 15.85 6.85C15.85 9.48 17.74 11.59 20.55 11.59C23.37 11.59 25.26 9.48 25.26 6.85C25.26 4.21 23.37 2.10 20.55 2.10ZM20.55 10.57C18.30 10.57 16.90 8.93 16.90 6.85C16.90 4.76 18.30 3.12 20.55 3.12C22.81 3.12 24.21 4.76 24.21 6.85C24.21 8.93 22.81 10.57 20.55 10.57ZM40.66 2.21L40.66 7.52C40.66 9.67 39.23 10.57 37.76 10.57C36.29 10.57 34.87 9.67 34.87 7.52L34.87 2.21L33.82 2.21L33.82 7.49C33.82 9.95 35.45 11.59 37.76 11.59C40.08 11.59 41.71 9.94 41.71 7.49L41.71 2.21ZM51.91 7.92L55.13 7.92L57.37 11.48L58.62 11.48L56.18 7.74C57.22 7.50 58.42 6.90 58.42 5.11C58.42 3.35 57.20 2.21 55.30 2.21L50.86 2.21L50.86 11.48L51.91 11.48ZM51.91 3.21L55.17 3.21C56.49 3.21 57.37 3.93 57.37 5.11C57.37 6.55 56.11 6.93 55.12 6.93L51.91 6.93ZM78.26 8.18L81.38 8.18C83.36 8.18 84.57 7.03 84.57 5.19C84.57 3.37 83.36 2.21 81.38 2.21L77.21 2.21L77.21 11.48L78.26 11.48ZM81.31 3.21C82.77 3.21 83.52 3.96 83.52 5.19C83.52 6.44 82.77 7.20 81.31 7.20L78.26 7.20L78.26 3.21ZM99.82 3.22L99.82 2.21L93.00 2.21L93.00 11.48L99.82 11.48L99.82 10.47L94.05 10.47L94.05 7.35L99.20 7.35L99.20 6.33L94.05 6.33L94.05 3.22ZM109.56 7.92L112.78 7.92L115.02 11.48L116.27 11.48L113.83 7.74C114.87 7.50 116.07 6.90 116.07 5.11C116.07 3.35 114.86 2.21 112.95 2.21L108.51 2.21L108.51 11.48L109.56 11.48ZM109.56 3.21L112.83 3.21C114.14 3.21 115.02 3.93 115.02 5.11C115.02 6.55 113.76 6.93 112.77 6.93L109.56 6.93ZM131.57 3.22L131.57 2.21L124.88 2.21L124.88 11.48L125.93 11.48L125.93 7.46L130.96 7.46L130.96 6.44L125.93 6.44L125.93 3.22ZM146.86 3.22L146.86 2.21L140.04 2.21L140.04 11.48L146.86 11.48L146.86 10.47L141.09 10.47L141.09 7.35L146.24 7.35L146.24 6.33L141.09 6.33L141.09 3.22ZM159.36 10.57C157.11 10.57 155.85 8.93 155.85 6.85C155.85 4.76 157.11 3.12 159.36 3.12C160.89 3.12 161.90 3.85 162.37 4.98L163.48 4.98C162.89 3.29 161.38 2.10 159.28 2.10C156.49 2.10 154.80 4.21 154.80 6.85C154.80 9.48 156.49 11.59 159.28 11.59C161.38 11.59 162.89 10.40 163.48 8.71L162.37 8.71C161.90 9.84 160.89 10.57 159.36 10.57ZM178.54 2.21L171.02 2.21L171.02 3.22L174.26 3.22L174.26 11.48L175.31 11.48L175.31 3.22L178.54 3.22ZM203.43 2.21L195.92 2.21L195.92 3.22L199.15 3.22L199.15 11.48L200.20 11.48L200.20 3.22L203.43 3.22ZM212.81 7.92L216.03 7.92L218.27 11.48L219.52 11.48L217.08 7.74C218.12 7.50 219.32 6.90 219.32 5.11C219.32 3.35 218.11 2.21 216.20 2.21L211.76 2.21L211.76 11.48L212.81 11.48ZM212.81 3.21L216.08 3.21C217.39 3.21 218.27 3.93 218.27 5.11C218.27 6.55 217.01 6.93 216.02 6.93L212.81 6.93ZM232.29 2.21L230.97 2.21L227.04 11.48L228.20 11.48L229.33 8.79L233.93 8.79L235.06 11.48L236.22 11.48ZM229.74 7.83L231.63 3.30L233.52 7.83ZM250.26 2.21L247.06 10.29L243.85 2.21L242.70 2.21L246.46 11.48L247.66 11.48L251.41 2.21ZM266.41 3.22L266.41 2.21L259.59 2.21L259.59 11.48L266.41 11.48L266.41 10.47L260.64 10.47L260.64 7.35L265.79 7.35L265.79 6.33L260.64 6.33L260.64 3.22ZM275.10 2.21L275.10 11.48L281.20 11.48L281.20 10.47L276.15 10.47L276.15 2.21ZM300.59 8.18L303.72 8.18C305.69 8.18 306.91 7.03 306.91 5.19C306.91 3.37 305.69 2.21 303.72 2.21L299.54 2.21L299.54 11.48L300.59 11.48ZM303.65 3.21C305.10 3.21 305.86 3.96 305.86 5.19C305.86 6.44 305.10 7.20 303.65 7.20L300.59 7.20L300.59 3.21ZM319.00 2.21L317.69 2.21L313.75 11.48L314.92 11.48L316.05 8.79L320.64 8.79L321.78 11.48L322.94 11.48ZM316.46 7.83L318.35 3.30L320.24 7.83ZM332.16 7.92L335.38 7.92L337.62 11.48L338.87 11.48L336.43 7.74C337.47 7.50 338.67 6.90 338.67 5.11C338.67 3.35 337.46 2.21 335.55 2.21L331.11 2.21L331.11 11.48L332.16 11.48ZM332.16 3.21L335.43 3.21C336.74 3.21 337.62 3.93 337.62 5.11C337.62 6.55 336.36 6.93 335.37 6.93L332.16 6.93ZM354.06 2.21L346.54 2.21L346.54 3.22L349.78 3.22L349.78 11.48L350.83 11.48L350.83 3.22L354.06 3.22ZM369.33 2.21L369.33 10.01L363.61 2.21L362.39 2.21L362.39 11.48L363.44 11.48L363.44 3.65L369.17 11.48L370.38 11.48L370.38 2.21ZM386.47 3.22L386.47 2.21L379.65 2.21L379.65 11.48L386.47 11.48L386.47 10.47L380.70 10.47L380.70 7.35L385.85 7.35L385.85 6.33L380.70 6.33L380.70 3.22ZM396.21 7.92L399.43 7.92L401.67 11.48L402.92 11.48L400.48 7.74C401.52 7.50 402.72 6.90 402.72 5.11C402.72 3.35 401.51 2.21 399.60 2.21L395.16 2.21L395.16 11.48L396.21 11.48ZM396.21 3.21L399.48 3.21C400.79 3.21 401.67 3.93 401.67 5.11C401.67 6.55 400.41 6.93 399.42 6.93L396.21 6.93Z"></path></g></svg>